<svg xmlns="http://www.w3.org/2000/svg" xmlns:xlink="http://www.w3.org/1999/xlink" width="500" zoomAndPan="magnify" viewBox="0 0 375 374.999991" height="500" preserveAspectRatio="xMidYMid meet" version="1.0"><defs><g/></defs><path fill="#ffffff" d="M 187.363281 359.496094 C 141.40625 359.496094 98.128906 341.609375 65.65625 309.066406 C 33.113281 276.59375 15.226562 233.320312 15.226562 187.363281 C 15.226562 141.40625 33.113281 98.128906 65.65625 65.65625 C 98.128906 33.113281 141.40625 15.226562 187.363281 15.226562 C 233.320312 15.226562 276.59375 33.113281 309.066406 65.65625 C 341.609375 98.199219 359.496094 141.40625 359.496094 187.363281 C 359.496094 233.320312 341.609375 276.59375 309.066406 309.066406 C 276.59375 341.609375 233.320312 359.496094 187.363281 359.496094 Z M 187.363281 25.546875 C 144.15625 25.546875 103.496094 42.402344 72.949219 72.949219 C 42.402344 103.496094 25.546875 144.15625 25.546875 187.363281 C 25.546875 230.566406 42.402344 271.226562 72.949219 301.773438 C 103.496094 332.320312 144.15625 349.175781 187.363281 349.175781 C 230.566406 349.175781 271.226562 332.320312 301.773438 301.773438 C 332.320312 271.226562 349.175781 230.566406 349.175781 187.363281 C 349.175781 144.15625 332.320312 103.496094 301.773438 72.949219 C 271.226562 42.402344 230.566406 25.546875 187.363281 25.546875 Z M 187.363281 25.546875 " fill-opacity="1" fill-rule="nonzero"/><g fill="#ffffff" fill-opacity="1"><g transform="translate(70.061445, 251.405795)"><g><path d="M 52.0625 -116.722656 C 31.003906 -116.722656 13.925781 -104.289062 13.925781 -84.558594 C 13.925781 -65.65625 28.019531 -57.53125 48.246094 -52.890625 C 68.308594 -48.246094 76.269531 -41.949219 76.269531 -28.019531 C 76.269531 -16.082031 65.65625 -8.953125 52.558594 -8.953125 C 37.636719 -8.953125 27.191406 -17.410156 23.875 -32.496094 L 8.621094 -32.496094 C 11.109375 -10.445312 27.027344 2.320312 52.226562 2.320312 C 74.277344 2.320312 91.523438 -10.609375 91.523438 -30.671875 C 91.523438 -50.070312 78.921875 -60.351562 53.71875 -66.15625 C 36.308594 -70.132812 29.179688 -75.4375 29.179688 -87.875 C 29.179688 -99.8125 38.796875 -105.449219 50.902344 -105.449219 C 65.324219 -105.449219 73.78125 -97.160156 75.109375 -82.734375 L 90.359375 -82.734375 C 88.207031 -102.300781 75.769531 -116.722656 52.0625 -116.722656 Z M 52.0625 -116.722656 "/></g></g></g><g fill="#ffffff" fill-opacity="1"><g transform="translate(167.018159, 251.405795)"><g><path d="M 101.46875 -102.796875 L 101.46875 -114.402344 L 5.636719 -114.402344 L 5.636719 -102.796875 L 46.425781 -102.796875 L 46.425781 0 L 60.683594 0 L 60.683594 -102.796875 Z M 101.46875 -102.796875 "/></g></g></g><g fill="#ffffff" fill-opacity="1"><g transform="translate(268.449756, 251.405795)"><g><path d="M 16.746094 -18.902344 C 10.609375 -18.902344 6.132812 -14.425781 6.132812 -8.289062 C 6.132812 -2.15625 10.609375 2.320312 16.746094 2.320312 C 22.878906 2.320312 27.355469 -2.15625 27.355469 -8.289062 C 27.355469 -14.425781 22.878906 -18.902344 16.746094 -18.902344 Z M 16.746094 -18.902344 "/></g></g></g></svg>