<svg xmlns="http://www.w3.org/2000/svg" xmlns:xlink="http://www.w3.org/1999/xlink" width="500" zoomAndPan="magnify" viewBox="0 0 375 374.999991" height="500" preserveAspectRatio="xMidYMid meet" version="1.0"><defs><g/></defs><g fill="#000000" fill-opacity="1"><g transform="translate(4.432033, 225.968807)"><g><path d="M 21.332031 -76.976562 C 11.105469 -76.976562 5.5 -71.476562 5.5 -61.140625 L 5.5 -42.117188 C 5.5 -40.027344 6.488281 -38.707031 8.46875 -38.046875 L 34.859375 -29.472656 L 34.859375 -18.363281 C 34.859375 -15.394531 33.320312 -13.964844 30.460938 -13.964844 L 24.523438 -13.964844 C 21.773438 -13.964844 20.125 -15.394531 20.125 -18.363281 L 20.125 -22.984375 C 20.125 -24.191406 19.574219 -24.742188 18.363281 -24.742188 L 7.257812 -24.742188 C 6.15625 -24.742188 5.5 -24.191406 5.5 -22.984375 L 5.5 -15.835938 C 5.5 -5.5 11.105469 0 21.332031 0 L 33.648438 0 C 43.988281 0 49.484375 -5.5 49.484375 -15.835938 L 49.484375 -36.507812 C 49.484375 -38.597656 48.496094 -39.917969 46.625 -40.578125 L 20.015625 -49.15625 L 20.015625 -58.503906 C 20.015625 -61.359375 21.664062 -62.902344 24.414062 -62.902344 L 30.460938 -62.902344 C 33.429688 -62.902344 34.859375 -61.359375 34.859375 -58.503906 L 34.859375 -53.882812 C 34.859375 -52.785156 35.519531 -52.125 36.617188 -52.125 L 47.726562 -52.125 C 48.933594 -52.125 49.484375 -52.785156 49.484375 -53.882812 L 49.484375 -61.140625 C 49.484375 -71.476562 43.988281 -76.976562 33.648438 -76.976562 Z M 21.332031 -76.976562 "/></g></g></g><g fill="#000000" fill-opacity="1"><g transform="translate(53.913398, 225.968807)"><g><path d="M 45.527344 -76.976562 C 46.734375 -76.976562 47.285156 -76.316406 47.285156 -75.21875 L 47.285156 -64.21875 C 47.285156 -63.121094 46.734375 -62.460938 45.527344 -62.460938 L 32.769531 -62.460938 L 32.769531 -1.757812 C 32.769531 -0.550781 32.21875 0 31.011719 0 L 19.574219 0 C 18.472656 0 17.816406 -0.550781 17.816406 -1.757812 L 17.816406 -62.460938 L 5.058594 -62.460938 C 3.957031 -62.460938 3.300781 -63.121094 3.300781 -64.21875 L 3.300781 -75.21875 C 3.300781 -76.316406 3.957031 -76.976562 5.058594 -76.976562 Z M 45.527344 -76.976562 "/></g></g></g><g fill="#000000" fill-opacity="1"><g transform="translate(98.996359, 225.968807)"><g><path d="M 42.117188 -76.976562 C 40.796875 -76.976562 40.027344 -76.316406 39.699219 -74.996094 L 28.703125 -25.292969 L 17.816406 -74.996094 C 17.484375 -76.316406 16.714844 -76.976562 15.394531 -76.976562 L 5.386719 -76.976562 C 3.738281 -76.976562 3.078125 -76.097656 3.410156 -74.558594 L 20.785156 -1.980469 C 21.113281 -0.660156 21.882812 0 23.203125 0 L 34.199219 0 C 35.519531 0 36.289062 -0.660156 36.617188 -1.980469 L 54.105469 -74.558594 C 54.433594 -76.097656 53.773438 -76.976562 52.125 -76.976562 Z M 42.117188 -76.976562 "/></g></g></g><g fill="#000000" fill-opacity="1"><g transform="translate(151.006812, 225.968807)"><g><path d="M 20.453125 -14.515625 L 42.226562 -14.515625 C 43.4375 -14.515625 43.988281 -13.855469 43.988281 -12.757812 L 43.988281 -1.757812 C 43.988281 -0.550781 43.4375 0 42.226562 0 L 7.257812 0 C 6.15625 0 5.5 -0.550781 5.5 -1.757812 L 5.5 -75.21875 C 5.5 -76.316406 6.15625 -76.976562 7.257812 -76.976562 L 18.695312 -76.976562 C 19.902344 -76.976562 20.453125 -76.316406 20.453125 -75.21875 Z M 20.453125 -14.515625 "/></g></g></g><g fill="#000000" fill-opacity="1"><g transform="translate(194.990168, 225.968807)"><g><path d="M 20.453125 -14.515625 L 42.226562 -14.515625 C 43.4375 -14.515625 43.988281 -13.855469 43.988281 -12.757812 L 43.988281 -1.757812 C 43.988281 -0.550781 43.4375 0 42.226562 0 L 7.257812 0 C 6.15625 0 5.5 -0.550781 5.5 -1.757812 L 5.5 -75.21875 C 5.5 -76.316406 6.15625 -76.976562 7.257812 -76.976562 L 18.695312 -76.976562 C 19.902344 -76.976562 20.453125 -76.316406 20.453125 -75.21875 Z M 20.453125 -14.515625 "/></g></g></g><g fill="#000000" fill-opacity="1"><g transform="translate(238.973512, 225.968807)"><g><path d="M 49.375 -75.21875 C 49.375 -76.316406 48.933594 -76.976562 47.617188 -76.976562 L 7.148438 -76.976562 C 6.15625 -76.976562 5.5 -76.316406 5.5 -75.21875 L 5.5 -1.757812 C 5.5 -0.660156 6.15625 0 7.148438 0 L 47.617188 0 C 48.933594 0 49.375 -0.660156 49.375 -1.757812 L 49.375 -12.757812 C 49.375 -13.964844 48.933594 -14.515625 47.617188 -14.515625 L 20.453125 -14.515625 L 20.453125 -30.789062 L 41.128906 -30.789062 C 42.226562 -30.789062 42.886719 -31.449219 42.886719 -32.660156 L 42.886719 -43.546875 C 42.886719 -44.757812 42.226562 -45.417969 41.128906 -45.417969 L 20.453125 -45.417969 L 20.453125 -62.351562 L 47.617188 -62.351562 C 48.933594 -62.351562 49.375 -63.121094 49.375 -64.21875 Z M 49.375 -75.21875 "/></g></g></g><g fill="#000000" fill-opacity="1"><g transform="translate(288.344928, 225.968807)"><g><path d="M 43.765625 -76.976562 C 42.445312 -76.976562 41.675781 -76.316406 41.238281 -75.21875 L 28.921875 -46.957031 L 16.605469 -75.21875 C 16.164062 -76.316406 15.394531 -76.976562 14.074219 -76.976562 L 3.078125 -76.976562 C 1.429688 -76.976562 0.660156 -75.875 1.320312 -74.449219 L 21.445312 -28.8125 L 21.445312 -2.199219 C 21.445312 -0.769531 22.214844 0 23.644531 0 L 34.199219 0 C 35.628906 0 36.398438 -0.769531 36.398438 -2.199219 L 36.398438 -28.8125 L 56.523438 -74.449219 C 57.183594 -75.875 56.414062 -76.976562 54.761719 -76.976562 Z M 43.765625 -76.976562 "/></g></g></g><g fill="#000000" fill-opacity="1"><g transform="translate(340.685264, 225.968807)"><g><path d="M 5.5 -2.199219 C 5.5 -0.769531 6.269531 0 7.699219 0 L 17.703125 0 C 19.132812 0 19.902344 -0.769531 19.902344 -2.199219 L 19.902344 -12.316406 C 19.902344 -13.746094 19.132812 -14.515625 17.703125 -14.515625 L 7.699219 -14.515625 C 6.269531 -14.515625 5.5 -13.746094 5.5 -12.316406 Z M 5.5 -2.199219 "/></g></g></g></svg>